<?xml version="1.0" standalone="no"?>
<svg version="1.1" id="Layer_1" xmlns="http://www.w3.org/2000/svg" xmlns:xlink="http://www.w3.org/1999/xlink" x="0px" y="0px" viewBox="0 0 595.276 595.276" enable-background="new 0 0 595.276 595.276" xml:space="preserve">
<path id="color_x5F_9" fill="#86D1D6" d="M228.206,510.964H125.54c-1.933,0-3.5-1.567-3.5-3.5c0-1.933,1.567-3.5,3.5-3.5h102.667
	c0,0,0,0,0,0c1.933,0,3.5,1.567,3.5,3.5C231.706,509.397,230.139,510.964,228.206,510.964z M356.394,507.464
	c0-1.933-1.567-3.5-3.5-3.5c0,0,0,0,0,0H250.227c0,0,0,0,0,0c-1.933,0-3.5,1.567-3.5,3.5c0,1.933,1.567,3.5,3.5,3.5h102.667
	C354.827,510.964,356.394,509.397,356.394,507.464z M367.283,510.964h6.611c1.933,0,3.5-1.567,3.5-3.5c0-1.933-1.567-3.5-3.5-3.5
	c0,0,0,0,0,0h-6.611c0,0,0,0,0,0c-1.933,0-3.5,1.567-3.5,3.5C363.783,509.397,365.35,510.964,367.283,510.964z M355.616,527.686
	c0-1.933-1.567-3.5-3.5-3.5h-51.528c-1.933,0-3.5,1.567-3.5,3.5s1.567,3.5,3.5,3.5h51.528
	C354.049,531.186,355.616,529.619,355.616,527.686z M280.172,540.508c0-1.933-1.567-3.5-3.5-3.5h-16.917c-1.933,0-3.5,1.567-3.5,3.5
	s1.567,3.5,3.5,3.5h16.917C278.604,544.008,280.172,542.441,280.172,540.508z M342.128,581.836h-14.441
	c-1.65,0-2.988,1.338-2.988,2.988s1.338,2.988,2.988,2.988h14.441c1.65,0,2.988-1.338,2.988-2.988S343.778,581.836,342.128,581.836z
	 M182.172,527.686c0-1.933-1.567-3.5-3.5-3.5h-4.083c-1.933,0-3.5,1.567-3.5,3.5s1.567,3.5,3.5,3.5h4.083
	C180.605,531.186,182.172,529.619,182.172,527.686z M473.644,503.964C473.644,503.964,473.644,503.964,473.644,503.964h-47.056
	c0,0,0,0-0.001,0c-1.933,0-3.499,1.567-3.499,3.5c0,1.933,1.567,3.5,3.5,3.5h47.056c1.933,0,3.5-1.567,3.5-3.5
	C477.144,505.531,475.577,503.964,473.644,503.964z M384.977,536.63h-47.055c-1.933,0-3.5,1.567-3.5,3.5s1.567,3.5,3.5,3.5h47.055
	c1.933,0,3.5-1.567,3.5-3.5S386.91,536.63,384.977,536.63z M465.477,536.63h-47.056c-1.933,0-3.5,1.567-3.5,3.5s1.567,3.5,3.5,3.5
	h47.056c1.933,0,3.5-1.567,3.5-3.5S467.41,536.63,465.477,536.63z M410.45,503.964C410.45,503.964,410.449,503.964,410.45,503.964
	h-19.01h-0.24c0,0,0,0,0,0c-1.933,0-3.5,1.567-3.5,3.5c0,1.933,1.567,3.5,3.5,3.5h19.25c1.933,0,3.5-1.567,3.5-3.5
	C413.949,505.531,412.383,503.964,410.45,503.964z M398.783,535.852c-2.362,0-4.278,1.915-4.278,4.278
	c0,2.362,1.915,4.278,4.278,4.278c2.363,0,4.278-1.915,4.278-4.278C403.06,537.768,401.145,535.852,398.783,535.852z
	 M270.915,566.256h36.125c1.484,0,2.687-1.203,2.687-2.687c0-1.484-1.203-2.687-2.687-2.687h-36.125
	c-1.484,0-2.687,1.203-2.687,2.687C268.228,565.053,269.431,566.256,270.915,566.256z M203.596,560.882h-36.125
	c-1.484,0-2.687,1.203-2.687,2.687c0,1.484,1.203,2.687,2.687,2.687h36.125c1.484,0,2.687-1.203,2.687-2.687
	C206.283,562.085,205.08,560.882,203.596,560.882z M294.596,582.136h-36.125c-1.484,0-2.687,1.203-2.687,2.687
	c0,1.484,1.203,2.687,2.687,2.687h36.125c1.484,0,2.687-1.203,2.687-2.687C297.283,583.34,296.08,582.136,294.596,582.136z
	 M231.207,537.821h-36.125c-1.484,0-2.687,1.203-2.687,2.687s1.203,2.687,2.687,2.687h36.125c1.484,0,2.687-1.203,2.687-2.687
	S232.691,537.821,231.207,537.821z M257.033,563.569c0,1.814,1.47,3.284,3.284,3.284c1.814,0,3.284-1.47,3.284-3.284
	c0-1.814-1.47-3.284-3.284-3.284C258.503,560.285,257.033,561.755,257.033,563.569z M308.627,581.539
	c-1.814,0-3.284,1.47-3.284,3.284c0,1.814,1.47,3.284,3.284,3.284c1.814,0,3.284-1.47,3.284-3.284
	C311.911,583.01,310.441,581.539,308.627,581.539z M180.398,543.792c1.814,0,3.284-1.47,3.284-3.284s-1.47-3.284-3.284-3.284
	s-3.284,1.47-3.284,3.284S178.584,543.792,180.398,543.792z"></path>
<path id="color_x5F_8" fill="#003e6d" d="M443.12,225.824h3.323v19.08h-3.323V225.824z M431.957,225.824h-3.323v19.08h3.323
	V225.824z M460.927,225.824h-3.323v19.08h3.323V225.824z M472.089,244.904h3.323v-19.08h-3.323V244.904z M443.12,272.969h3.323
	v-15.306h-3.323V272.969z M431.771,276.743l0.186-0.231v-18.849h-3.323v18.79c0.049,0.097,0.098,0.193,0.148,0.29H431.771z
	 M460.927,257.663h-3.323v14.3l3.323-3.328V257.663z M472.089,259.315h3.323v-1.652h-3.323V259.315z M583.532,306.958v0.615
	c1.01,1.843,2.171,3.993,3.415,6.34v-6.955H583.532z M546.662,250.537h2.798v-17.294h-2.798V250.537z M562.227,250.537h2.798
	v-17.294h-2.798V250.537z M287.852,217.127c0-6.125-4.052-11.092-9.05-11.092c-2.049,0-3.932,0.844-5.449,2.251l13.824,13.038
	C287.609,220.029,287.852,218.613,287.852,217.127z M387.355,276.316h3.134v-48.097h-3.134V276.316z M363.95,257.322
	c0.088-0.154,0.15-0.261,0.15-0.261s1.164,2.02,2.985,5.316v-34.157h-3.135V257.322z M341.024,257.51
	c0.477,0.836,1.609,2.833,3.134,5.606v-34.896h-3.134V257.51z M501.004,364.145h4.702v-18.422h-4.702V364.145z M522.517,364.145
	h4.702v-18.422h-4.702V364.145z M544.03,364.145h4.702v-18.422h-4.702V364.145z M565.543,364.145h4.702v-18.422h-4.702V364.145z
	 M529.514,452.021h4.702v-18.423h-4.702V452.021z M551.027,452.021h2.847c0.619-1.045,1.248-2.084,1.855-3.137v-15.286h-4.702
	V452.021z M526.758,283.207v25.407h4.278v-25.407c0-1.229-0.236-2.384-0.653-3.393c-0.25-0.605-0.564-1.157-0.931-1.64
	c-0.611-0.805-1.369-1.418-2.215-1.765c-0.508-0.208-1.048-0.32-1.608-0.32c-0.001,0-0.002,0-0.003,0
	c-0.188,0-0.374,0.013-0.557,0.038c-0.023,0.003-0.046,0.01-0.069,0.014c-0.161,0.025-0.321,0.055-0.478,0.098
	c-0.008,0.002-0.015,0.006-0.023,0.008c-0.35,0.099-0.688,0.24-1.009,0.423c0,0,0,0,0,0
	C525.412,277.762,526.758,280.276,526.758,283.207z M416.435,338.511v26.52h4.618h0v-26.52h0H416.435z M396.301,365.031h4.618
	v-26.52h-4.618V365.031z M436.567,365.031h4.619v-26.52h-4.619V365.031z M456.7,365.031h4.618v-26.52H456.7V365.031z
	 M416.435,382.765v26.52h4.618h0v-26.52h0H416.435z M396.301,409.285h4.618v-26.52h-4.618V409.285z M436.567,409.285h4.619v-26.52
	h-4.619V409.285z M456.7,409.285h4.618v-26.52H456.7V409.285z M396.301,431.295v20.09h4.618v-20.09v0L396.301,431.295
	L396.301,431.295z M456.7,431.295v20.09h4.618v-20.09v0L456.7,431.295L456.7,431.295z M477.572,431.295v20.09h4.619v-20.09v0
	L477.572,431.295L477.572,431.295z M437.411,317.591c0-1.572-0.319-3.069-0.895-4.431c-0.576-1.362-1.41-2.589-2.44-3.619
	c-0.258-0.258-0.527-0.503-0.808-0.735c-0.562-0.464-1.17-0.875-1.815-1.226c-1.613-0.876-3.462-1.374-5.427-1.374
	c-0.476,0-0.944,0.035-1.403,0.095c-0.046,0.006-0.092,0.014-0.138,0.021c-0.443,0.063-0.879,0.147-1.305,0.257
	c4.908,1.266,8.538,5.708,8.538,11.011c0,5.303-3.631,9.746-8.538,11.011c0.426,0.11,0.862,0.194,1.305,0.257
	c0.046,0.007,0.091,0.015,0.138,0.021c0.46,0.06,0.927,0.095,1.403,0.095C432.314,328.975,437.411,323.879,437.411,317.591z
	 M177.278,352.459h3.976v-21.622h-3.976V352.459z M159.945,352.459h3.976v-21.622h-3.976V352.459z M194.611,352.459h3.976v-21.622
	h-3.976V352.459z M211.943,330.838v21.622h2.666h1.311v-21.622h-1.32H211.943z M177.278,398.653h3.976v-21.622h-3.976V398.653z
	 M159.945,398.653h3.976v-21.622h-3.976V398.653z M194.611,398.653h3.976v-21.622h-3.976V398.653z M211.943,377.031v21.622h3.976
	v-21.622h-1.3H211.943z M177.278,419.919v21.622h3.976v-21.622v0L177.278,419.919L177.278,419.919z M159.945,419.919v21.622h3.976
	v-21.622v0L159.945,419.919L159.945,419.919z M194.611,419.919v21.622h3.976v-21.622v0L194.611,419.919L194.611,419.919z
	 M211.943,419.919v21.622h0.656c0.907-2.423,2.07-5.087,3.32-7.747v-13.875v0L211.943,419.919L211.943,419.919z M328.015,330.838
	v21.622h3.976h0v-21.622h0H328.015z M310.682,352.459h3.976v-21.622h-3.976V352.459z M345.347,352.459h3.976v-21.622h-3.976V352.459
	z M362.68,352.459h3.976v-21.622h-3.976V352.459z M328.015,377.031v21.622h3.976h0v-21.622h0H328.015z M310.682,398.653h3.976
	v-21.622h-3.976V398.653z M345.347,398.653h3.976v-21.622h-3.976V398.653z M362.68,398.653h3.976v-21.622h-3.976V398.653z
	 M328.015,419.919v21.622h3.976h0v-21.622L328.015,419.919L328.015,419.919z M310.682,419.919v21.622h3.976v-21.622v0
	L310.682,419.919L310.682,419.919z M345.347,419.919v21.622h3.976v-21.622v0L345.347,419.919L345.347,419.919z M362.68,419.919
	v21.622h3.976v-21.622v0L362.68,419.919L362.68,419.919z M252.416,352.459h3.976v-21.622h-3.976V352.459z M235.083,352.459h3.976
	v-21.622h-3.976V352.459z M269.749,352.459h3.976v-21.622h-3.976V352.459z M287.081,352.459h3.976v-21.622h-3.976V352.459z
	 M252.416,398.653h3.976v-21.622h-3.976V398.653z M235.083,398.653h3.976v-21.622h-3.976V398.653z M269.749,398.653h3.976v-21.622
	h-3.976V398.653z M287.081,398.653h3.976v-21.622h-3.976V398.653z M235.083,419.919v17.366c0.64,1.466,1.228,2.898,1.736,4.255h2.24
	v-21.622v0L235.083,419.919L235.083,419.919z M287.081,419.919v18.958c1.168-2.803,2.568-5.787,3.976-8.626v-10.332v0
	L287.081,419.919L287.081,419.919z M252.416,244.901v21.622h3.976v-21.622v0L252.416,244.901L252.416,244.901z M235.083,244.901
	v21.622h3.976v-21.622v0L235.083,244.901L235.083,244.901z M269.749,244.901v21.622h3.976v-21.622v0L269.749,244.901
	L269.749,244.901z M287.081,244.901v21.622h3.976v-21.622v0L287.081,244.901L287.081,244.901z M252.416,287.789v21.622h3.976
	v-21.622v0L252.416,287.789L252.416,287.789z M235.083,287.789v21.622h3.976v-21.622v0L235.083,287.789L235.083,287.789z
	 M269.749,287.789v21.622h3.976v-21.622v0L269.749,287.789L269.749,287.789z M287.081,287.789v21.622h3.976v-21.622v0
	L287.081,287.789L287.081,287.789z M65.111,400.612v14.917h3.415h0v-14.917h0H65.111z M78.46,415.528h3.415v-14.917H78.46V415.528z
	 M91.809,415.528h3.415v-14.917h-3.415V415.528z M105.158,415.528h3.415v-14.917h-3.415V415.528z M65.111,424.115v14.917h3.415h0
	v-14.917L65.111,424.115L65.111,424.115z M118.507,415.528h3.415v-14.917h-3.415V415.528z M118.507,424.115v14.917h3.415v-14.917v0
	L118.507,424.115L118.507,424.115z M28.242,344.19h2.798v-17.294h-2.798V344.19z M43.806,344.19h2.798v-17.294h-2.798V344.19z
	 M260.895,173.368v14.594l2.261-3.869v-10.725c0-1.293-0.862-2.433-2.173-3.106c-0.787-0.404-1.735-0.64-2.756-0.64
	c-0.391,0-0.766,0.043-1.13,0.108c0,0,0,0,0,0C259.272,170.12,260.895,171.596,260.895,173.368z M260.895,137.189v22.059h2.261
	v-22.059c0-1.293-0.862-2.433-2.173-3.106c-0.787-0.404-1.735-0.64-2.756-0.64c-0.391,0-0.766,0.043-1.13,0.109c0,0,0,0,0,0
	C259.272,133.941,260.895,135.417,260.895,137.189z M260.895,101.01v22.059h2.261V101.01c0-1.293-0.862-2.433-2.173-3.106
	c-0.787-0.404-1.735-0.64-2.756-0.64c-0.391,0-0.766,0.043-1.13,0.109c0,0,0,0,0,0C259.272,97.762,260.895,99.238,260.895,101.01z
	 M140.201,169.916c-0.448-0.189-0.941-0.294-1.458-0.294h0c0,0,0,0-0.001,0c-0.094,0-0.182,0.019-0.273,0.028
	c-0.306,0.043-0.733,0.126-0.856,0.165c0,0,0,0-0.001,0h0c1.512,0.482,2.615,1.881,2.615,3.553v6.267l2.261-2.416v-3.851
	C142.488,171.816,141.545,170.485,140.201,169.916z M28.402,292.153c0.111,0.219,0.709,1.411,0.897,1.789l1.436-1.485v-17.685
	c0-0.267-0.027-0.528-0.079-0.779c-0.155-0.755-0.529-1.43-1.054-1.954c-0.525-0.525-1.2-0.899-1.954-1.054
	c-0.251-0.051-0.512-0.079-0.779-0.079h0c0,0,0,0-0.001,0c-0.217,0-0.426,0.025-0.631,0.064c-0.183,0.03-0.358,0.082-0.531,0.137
	c1.558,0.498,2.695,1.941,2.695,3.665V292.153z M8.549,272.039c-0.175-0.175-0.366-0.333-0.572-0.472
	c-0.617-0.417-1.361-0.66-2.162-0.66h0c0,0-0.001,0-0.001,0c-0.216,0-0.426,0.025-0.63,0.064c-0.183,0.03-0.357,0.082-0.531,0.137
	c1.559,0.498,2.694,1.941,2.694,3.665v14.021c0.799-1.55,1.58-3.042,2.333-4.465v-9.555c0-0.267-0.027-0.528-0.078-0.779
	C9.448,273.238,9.073,272.564,8.549,272.039z M89.894,200.11v22.763h2.193V200.11c0-2.135-2.276-3.865-5.086-3.865
	c-0.281,0-0.553,0.027-0.82,0.063c-0.1,0.012-0.192,0.04-0.29,0.056C88.054,196.815,89.894,198.331,89.894,200.11z M90.066,234.376
	c-0.854-0.494-1.908-0.798-3.064-0.798c-0.281,0-0.553,0.027-0.82,0.063c-0.097,0.012-0.187,0.039-0.283,0.055
	c2.169,0.444,3.861,1.958,3.861,3.744v4.981l0.312,0v-8.048c-0.002-0.001-0.004-0.002-0.006-0.003V234.376z M348.801,151.982
	L348.801,151.982l0-20.53c0-2.012-1.224-3.739-2.967-4.477c-0.581-0.246-2.426-0.351-2.682-0.302
	c-0.228,0.038-0.445,0.103-0.661,0.17c1.962,0.624,3.394,2.439,3.394,4.608v20.53l0,0h-6.8h-2.351v1.881h14.262v-1.881H348.801
	L348.801,151.982z M427.825,427.169c-0.299,0-1.877,0.299-1.872,0.301c3.314,1.065,5.766,4.839,5.766,9.333v28.038h3.776v-28.038
	C435.495,431.483,432.062,427.169,427.825,427.169z M262.327,413.08c-0.411,0-2.578,0.41-2.57,0.413
	c4.553,1.464,7.92,6.65,7.92,12.825v38.524h5.188v-38.524C272.866,419.007,268.148,413.08,262.327,413.08z M93.008,423.635
	c-0.411,0-0.815,0.03-1.215,0.075c-0.127,0.015-1.356,0.253-1.355,0.253c4.553,1.166,7.92,5.294,7.92,10.21v30.669h5.188v-30.669
	C103.547,428.353,98.829,423.635,93.008,423.635z"></path>
<path id="color_x5F_7" fill="#ffffff" d="M369.213,553.869c-0.141,1.406-1.429,2.424-2.843,2.424h-24.822
	c-4.199,0-7.861,3.236-7.987,7.433c-0.13,4.343,3.352,7.904,7.665,7.904h2.353c1.492,0,2.702,1.21,2.702,2.702
	s-1.21,2.703-2.702,2.703h-25.552c-1.413,0-2.702-1.017-2.842-2.424c-0.162-1.618,1.104-2.981,2.688-2.981h3.696
	c4.199,0,7.861-3.236,7.987-7.433c0.13-4.343-3.351-7.904-7.665-7.904H214.914c-1.481,0-2.831-1.066-2.978-2.539
	c-0.17-1.695,1.157-3.123,2.817-3.123h22.057c5.46,0,10.227-4.12,10.58-9.568c0.387-5.97-4.341-10.934-10.229-10.934h-26.078
	c-1.413,0-2.702-1.017-2.842-2.424c-0.162-1.618,1.104-2.981,2.688-2.981h71.441c1.414,0,2.702,1.017,2.842,2.424
	c0.162,1.618-1.104,2.981-2.689,2.981h-10.38c-4.479,0-8.277,2.877-9.672,6.88h-2.718c-1.933,0-3.5,1.567-3.5,3.5s1.567,3.5,3.5,3.5
	h2.718c1.396,4.003,5.193,6.88,9.672,6.88h94.38C368.109,550.888,369.375,552.252,369.213,553.869z M551.953,162.862H507.34
	c-1.32,0-2.39-1.07-2.39-2.39c0-1.32,1.07-2.39,2.39-2.39h6.114c3.734,0,6.723-3.189,6.392-6.991
	c-0.293-3.371-3.34-5.842-6.724-5.842h-60.001c-3.384,0-6.431,2.471-6.724,5.842c-0.331,3.802,2.658,6.991,6.392,6.991h42.772
	c1.32,0,2.39,1.07,2.39,2.39v0.548c0,1.022-0.653,1.922-1.619,2.255c-2.369,0.814-4.211,2.849-4.435,5.43
	c-0.331,3.802,2.658,6.991,6.392,6.991h53.334c3.384,0,6.431-2.471,6.724-5.842C558.675,166.051,555.687,162.862,551.953,162.862z
	 M389.311,40.351h-56.096c-1.804,0-3.266-1.462-3.266-3.266c0-1.804,1.462-3.266,3.266-3.266h8.596c3.734,0,6.722-3.189,6.392-6.991
	c-0.293-3.371-3.34-5.842-6.724-5.842H252.31c-3.384,0-6.431,2.471-6.724,5.842c-0.331,3.802,2.658,6.991,6.392,6.991h53.707
	c1.804,0,3.266,1.462,3.266,3.266c0,1.804-1.462,3.266-3.266,3.266h-5.54c-3.384,0-6.431,2.471-6.724,5.842
	c-0.331,3.803,2.658,6.991,6.392,6.991h89.833c3.734,0,6.722-3.189,6.392-6.991C395.742,42.822,392.695,40.351,389.311,40.351z
	 M454.152,97.345h24.741h5.72c2.426,0,4.392,1.966,4.392,4.392c0,2.426-1.967,4.393-4.392,4.393h-0.136
	c-3.384,0-6.431,2.471-6.724,5.842c-0.331,3.803,2.658,6.991,6.392,6.991h49.322c-3.372-4.373-6.851-8.658-10.456-12.833h-16.39
	c-2.426,0-4.392-1.967-4.392-4.393c0-2.426,1.967-4.392,4.392-4.392h0.866c2.088,0,4.044-0.946,5.307-2.459
	c-3.388-3.544-6.866-7.001-10.424-10.374h-25.797h-22.087c-3.384,0-6.431,2.471-6.724,5.842
	C447.429,94.157,450.418,97.345,454.152,97.345z"></path>
<path id="color_x5F_6" fill="#21B4C9" d="M483.039,503.964h-9.394c1.933,0.001,3.499,1.567,3.499,3.5c0,1.933-1.567,3.5-3.5,3.5
	h-47.056c-1.933,0-3.5-1.567-3.5-3.5c0-1.933,1.567-3.5,3.499-3.5H410.45c1.933,0,3.5,1.567,3.5,3.5c0,1.933-1.567,3.5-3.5,3.5
	h-19.25c-1.933,0-3.5-1.567-3.5-3.5c0-1.933,1.567-3.5,3.5-3.5h-17.305c1.933,0,3.5,1.567,3.5,3.5c0,1.933-1.567,3.5-3.5,3.5h-6.611
	c-1.933,0-3.5-1.567-3.5-3.5c0-1.933,1.567-3.5,3.5-3.5h-14.388c1.933,0,3.5,1.567,3.5,3.5c0,1.933-1.567,3.5-3.5,3.5H250.227
	c-1.933,0-3.5-1.567-3.5-3.5c0-1.933,1.567-3.5,3.5-3.5h-22.02c1.933,0,3.5,1.567,3.5,3.5c0,1.933-1.567,3.5-3.5,3.5H125.54
	c-1.933,0-3.5-1.567-3.5-3.5c0-1.933,1.567-3.5,3.5-3.5h-10.311c-0.001,0-0.001,0-0.002,0c-5.528,0.001-10.355,4.173-10.712,9.689
	c-0.391,6.045,4.396,11.071,10.357,11.071h47.331c1.414,0,2.702,1.017,2.842,2.424c0.162,1.618-1.104,2.981-2.688,2.981h-1.862
	c-5.46,0-10.227,4.12-10.58,9.569c-0.387,5.971,4.341,10.933,10.229,10.933h26.423c1.481,0,2.83,1.066,2.978,2.539
	c0.17,1.695-1.157,3.123-2.817,3.123h-4.345c-3.183,0-6.053,1.861-7.313,4.589h28.525c1.484,0,2.687,1.203,2.687,2.687
	c0,1.484-1.203,2.687-2.687,2.687h-28.845c0.976,3.113,3.877,5.374,7.312,5.374h96.808c1.414,0,2.702,1.017,2.842,2.424
	c0.162,1.618-1.104,2.981-2.689,2.981h-31.629c-4.235,0-7.669,3.433-7.669,7.669l0,0c0,4.235,3.433,7.669,7.669,7.669h109.951
	c3.568,0,9.548-0.763,9.548-7.669l0,0c0-4.235-3.433-7.669-7.669-7.669h-1.879c-1.492,0-2.702-1.21-2.702-2.703
	s1.21-2.702,2.702-2.702h33.057c4.199,0,7.861-3.236,7.987-7.433c0.13-4.343-3.351-7.904-7.665-7.904h-0.558
	c-1.414,0-2.702-1.017-2.843-2.424c-0.162-1.618,1.104-2.981,2.689-2.981h58.414c4.62,0,8.523-3.057,9.804-7.258h-39.81
	c-1.933,0-3.5-1.567-3.5-3.5s1.567-3.5,3.5-3.5h39.539c-1.498-3.805-5.197-6.502-9.534-6.502h-44.26
	c-1.414,0-2.702-1.017-2.842-2.424c-0.162-1.618,1.104-2.981,2.688-2.981h78.669c5.529,0,10.356-4.172,10.713-9.689
	C493.787,508.989,489,503.964,483.039,503.964z M171.088,527.686c0-1.933,1.567-3.5,3.5-3.5h4.083c1.933,0,3.5,1.567,3.5,3.5
	s-1.567,3.5-3.5,3.5h-4.083C172.655,531.186,171.088,529.619,171.088,527.686z M180.398,543.792c-1.814,0-3.284-1.47-3.284-3.284
	s1.47-3.284,3.284-3.284s3.284,1.47,3.284,3.284S182.211,543.792,180.398,543.792z M300.588,524.186h51.528
	c1.933,0,3.5,1.567,3.5,3.5s-1.567,3.5-3.5,3.5h-51.528c-1.933,0-3.5-1.567-3.5-3.5S298.655,524.186,300.588,524.186z
	 M195.082,543.195c-1.484,0-2.687-1.203-2.687-2.687s1.203-2.687,2.687-2.687h36.125c1.484,0,2.687,1.203,2.687,2.687
	s-1.203,2.687-2.687,2.687H195.082z M260.317,566.853c-1.814,0-3.284-1.47-3.284-3.284c0-1.814,1.47-3.284,3.284-3.284
	c1.814,0,3.284,1.47,3.284,3.284C263.601,565.383,262.13,566.853,260.317,566.853z M270.915,566.256
	c-1.484,0-2.687-1.203-2.687-2.687c0-1.484,1.203-2.687,2.687-2.687h36.125c1.484,0,2.687,1.203,2.687,2.687
	c0,1.484-1.203,2.687-2.687,2.687H270.915z M294.596,587.51h-36.125c-1.484,0-2.687-1.203-2.687-2.687
	c0-1.484,1.203-2.687,2.687-2.687h36.125c1.484,0,2.687,1.203,2.687,2.687C297.283,586.307,296.08,587.51,294.596,587.51z
	 M308.627,588.108c-1.814,0-3.284-1.47-3.284-3.284c0-1.814,1.47-3.284,3.284-3.284c1.814,0,3.284,1.47,3.284,3.284
	C311.911,586.637,310.441,588.108,308.627,588.108z M342.128,587.811h-14.441c-1.65,0-2.988-1.338-2.988-2.988
	s1.338-2.988,2.988-2.988h14.441c1.65,0,2.988,1.338,2.988,2.988S343.778,587.811,342.128,587.811z M366.37,556.293h-24.822
	c-4.199,0-7.861,3.236-7.987,7.433c-0.13,4.343,3.352,7.904,7.665,7.904h2.353c1.492,0,2.702,1.21,2.702,2.702
	s-1.21,2.703-2.702,2.703h-25.552c-1.413,0-2.702-1.017-2.842-2.424c-0.162-1.618,1.104-2.981,2.688-2.981h3.696
	c4.199,0,7.861-3.236,7.987-7.433c0.13-4.343-3.351-7.904-7.665-7.904H214.914c-1.481,0-2.831-1.066-2.978-2.539
	c-0.17-1.695,1.157-3.123,2.817-3.123h22.057c5.46,0,10.227-4.12,10.58-9.568c0.387-5.97-4.341-10.934-10.229-10.934h-26.078
	c-1.413,0-2.702-1.017-2.842-2.424c-0.162-1.618,1.104-2.981,2.688-2.981h71.441c1.414,0,2.702,1.017,2.842,2.424
	c0.162,1.618-1.104,2.981-2.689,2.981h-10.38c-4.479,0-8.277,2.877-9.672,6.88h14.199c1.933,0,3.5,1.567,3.5,3.5s-1.567,3.5-3.5,3.5
	h-14.199c1.396,4.003,5.193,6.88,9.672,6.88h94.38c1.584,0,2.85,1.363,2.689,2.981C369.072,555.276,367.784,556.293,366.37,556.293z
	 M384.977,543.63h-47.055c-1.933,0-3.5-1.567-3.5-3.5s1.567-3.5,3.5-3.5h47.055c1.933,0,3.5,1.567,3.5,3.5
	S386.91,543.63,384.977,543.63z M403.06,540.13c0,2.362-1.915,4.278-4.278,4.278c-2.362,0-4.278-1.915-4.278-4.278
	c0-2.363,1.915-4.278,4.278-4.278C401.145,535.852,403.06,537.768,403.06,540.13z"></path>
<path id="color_x5F_5" fill="#ffdecf" d="M481.888,228.583v-0.893l-32.835-44.88l-33.178,45.145h-6.248v-10.828l-7.393-12.65
	l17.779-23.4h5.64v-9.602h5.097v13.107l2.383-3.505h17.196l34.851,47.507H481.888z M592.42,259.315l-37.086,0.001l-11.641,13.653
	h1.963l6.796,8.496c1.914-3.47,3.149-5.613,3.149-5.613s7.835,13.588,14.706,27.934l0.351,0.439l23.925-23.818
	C594.109,273.304,593.384,266.272,592.42,259.315z M470.233,259.315l-13.633,13.654h16.307c2.367-4.87,4.803-9.59,6.963-13.654
	H470.233z M554.508,206.635l17.187,23.162h1.764l-17.807-24.658l-48.445-0.277l-21.682,24.935h51.266L554.508,206.635z
	 M206.153,87.836h-8.9v6.007h31.088v-6.007h6.219l23.224-34.789h-28.407L206.153,87.836z M56.166,186.511h6.417l23.965-35.9H57.236
	l-23.966,35.9h-9.184v6.199h32.08V186.511z M301.096,112.16h-2.489v4.424h2.489v40.93h8.02l15.487,26.221v-67.151h-0.553v-4.424
	l6.516-36.505C330.565,75.655,304.69,110.362,301.096,112.16z M485.392,272.969l27.949,35.645v-35.118l-27.987-0.576
	L485.392,272.969z M426.452,276.316h-23.901l-3.312,4.871v-18.218h-7.084v13.347h-7.839l-5.932,7.807l-12.343,16.246l6.65,6.399
	v34.706h5.874l46.116-62.748l45.639,62.381v1.241h4.572L426.452,276.316z M97.348,352.969l-60.435,0L18.37,374.717H9.32
	c2.052,8,4.444,15.862,7.13,23.587h35.359l42.931-42.739l0,0l38.207,42.738h5.405L97.348,352.969z M32.503,435.923v-13.702h-6.564
	C28.015,426.851,30.2,431.422,32.503,435.923z M36.63,438.885h5.912c0.938-2.251,2.025-4.618,3.148-6.936v-9.728h-9.06V438.885z
	 M36.088,300.288L36.088,300.288l17.187,23.163h1.765l-17.807-24.658L0.025,298.58C0.021,299.234,0,299.885,0,300.541
	c0,7.708,0.293,15.348,0.869,22.909H18.37L36.088,300.288z M49.442,464.842c8.321,12.545,17.555,24.431,27.63,35.544v-10.323
	c0-7.572,6.138-13.71,13.71-13.71h0c7.572,0,13.71,6.138,13.71,13.71v13.901h19.734v-39.122H49.442z M151.15,476.353L151.15,476.353
	c-7.572,0-13.71,6.138-13.71,13.71v13.901h27.421v-13.901C164.86,482.491,158.722,476.353,151.15,476.353z M191.546,476.353
	L191.546,476.353c-7.572,0-13.71,6.138-13.71,13.71v13.901h27.421v-13.901C205.256,482.491,199.118,476.353,191.546,476.353z
	 M231.942,476.353L231.942,476.353c-7.572,0-13.71,6.138-13.71,13.71v13.901h9.975c0,0,0,0,0,0h17.446v-13.901
	C245.652,482.491,239.514,476.353,231.942,476.353z M272.338,476.353L272.338,476.353c-7.572,0-13.71,6.138-13.71,13.71v13.901
	h27.421v-13.901C286.048,482.491,279.91,476.353,272.338,476.353z M312.734,476.353L312.734,476.353
	c-7.572,0-13.71,6.138-13.71,13.71v13.901h27.421v-13.901C326.444,482.491,320.306,476.353,312.734,476.353z M337.707,464.842
	v39.122h13.336v-13.901c0-7.572,6.138-13.71,13.71-13.71h0c7.572,0,13.71,6.138,13.71,13.71v13.901h12.734c0,0,0,0,0,0h0.24v-13.901
	c0-7.572,6.138-13.71,13.71-13.71l0,0c7.572,0,13.71,6.138,13.71,13.71v13.901h12.975v-13.901c0-7.572,6.138-13.71,13.71-13.71
	c7.572,0,13.71,6.138,13.71,13.71v13.901h10.304v-39.122H337.707z M496.053,476.353L496.053,476.353
	c-7.572,0-13.711,6.138-13.711,13.71v13.901h27.421v-13.901C509.764,482.491,503.625,476.353,496.053,476.353z M536.449,476.353
	c-7.572,0-13.71,6.138-13.71,13.71v5.209c5.256-6.071,10.256-12.368,15.014-18.854C537.324,476.378,536.889,476.353,536.449,476.353
	L536.449,476.353z"></path>
<path id="color_x5F_4" fill="#00CEC9" d="M310.244,441.541c1.118,2.986,1.847,5.602,1.847,7.357
	c0,7.241-5.52,13.176-12.578,13.871c-0.071,0.007-0.14,0.022-0.211,0.028v2.045h-2.335v-2.045
	c-7.161-0.595-12.789-6.584-12.789-13.898c0-1.756,0.728-4.371,1.847-7.357c0.322-0.861,0.677-1.752,1.057-2.664
	c1.168-2.803,2.568-5.787,3.976-8.626c3.522-7.098,7.077-13.265,7.077-13.265s0.531,0.921,1.379,2.448
	c1.309,2.358,3.381,6.173,5.473,10.364C306.927,433.69,308.878,437.892,310.244,441.541z M235.083,437.286
	c-1.735-3.977-3.836-8.183-5.696-11.735c-2.573-4.913-4.678-8.565-4.678-8.565s-4.815,8.353-8.79,16.808
	c-1.25,2.659-2.413,5.324-3.32,7.747c-1.118,2.986-1.847,5.602-1.847,7.357c0,3.754,1.49,7.153,3.902,9.659
	c2.287,2.376,5.403,3.95,8.888,4.24v2.045h2.335v-2.045c7.161-0.595,12.789-6.584,12.789-13.898c0-1.756-0.729-4.371-1.847-7.357
	C236.311,440.184,235.723,438.752,235.083,437.286z M154.249,441.209c-3.846-10.105-11.984-24.223-11.984-24.223
	s-0.33,0.573-0.885,1.562c-1.668,2.975-5.385,9.759-8.433,16.382c-2.555,5.553-4.639,10.991-4.639,13.968
	c0,4.126,1.792,7.829,4.639,10.382c2.2,1.972,5.029,3.257,8.15,3.517v2.045h0.283h2.052v-2.045
	c7.161-0.595,12.789-6.584,12.789-13.898c0-1.756-0.729-4.371-1.847-7.357C154.333,441.431,154.291,441.32,154.249,441.209z
	 M303.433,218.95c0,0-2.754,4.78-6.424,11.648l2.503,2.361v9.462h6.309l18.056,17.375c-2.874-7.152-6.741-15.161-10.346-22.187
	C308.184,227.189,303.433,218.95,303.433,218.95z M56.166,242.769c-1.791,3.292-3.944,7.339-6.173,11.72
	c-1.477,2.903-2.982,5.944-4.437,9.012c-3.938,8.302-7.475,16.74-8.93,22.865l33.499-34.631c-5.037-9.731-9.36-17.23-9.36-17.23
	S58.886,237.768,56.166,242.769z M17.017,270.964c0,0-3.219,5.587-7.336,13.365c-0.753,1.423-1.534,2.916-2.333,4.465
	c-1.436,2.785-2.92,5.735-4.378,8.742c-0.171,0.353-0.342,0.704-0.512,1.058l22.219,0.127l4.622-4.778
	c-0.057-0.114-4.958-9.655-6.295-12.146C19.555,275.368,17.017,270.964,17.017,270.964z M61.177,431.27
	c-3.677-7.516-7.579-14.283-7.579-14.283s-0.703,1.22-1.79,3.191c-1.555,2.821-3.899,7.189-6.119,11.772
	c-1.123,2.318-2.21,4.684-3.148,6.936c-1.697,4.071-2.901,7.753-2.901,10.014c0,0.053,0.007,0.104,0.008,0.157
	c2.372,4.111,4.837,8.161,7.397,12.145c1.454,0.775,3.06,1.296,4.763,1.515c0.208,0.027,0.412,0.064,0.622,0.082v2.045h2.335v-2.045
	c7.16-0.595,12.789-6.584,12.789-13.898c0-2.233-1.175-5.854-2.84-9.867C63.672,436.517,62.439,433.851,61.177,431.27z
	 M378.384,284.123c-1.533-3.175-3.1-6.294-4.613-9.229c-2.543-4.93-4.924-9.326-6.686-12.517c-1.82-3.296-2.985-5.316-2.985-5.316
	s-0.061,0.107-0.15,0.261c-0.893,1.56-6.101,10.72-11.517,21.49c-0.695-1.382-1.385-2.735-2.065-4.052
	c-2.329-4.512-4.512-8.558-6.21-11.644c-1.525-2.772-2.657-4.77-3.134-5.606c-0.164-0.287-0.257-0.449-0.257-0.449
	s-2.958,5.13-6.832,12.412l32.107,30.896L378.384,284.123z M500.942,418.258c-1.199,2.133-3.73,6.712-6.266,11.812
	c-3.486,7.01-6.97,14.978-6.97,18.829c0,5.828,3.579,10.805,8.654,12.892c1.294,0.532,2.681,0.886,4.136,1.007v2.045h0.446h1.889
	v-2.045c7.161-0.595,12.79-6.584,12.79-13.898c0-7.708-13.957-31.912-13.957-31.912S501.394,417.454,500.942,418.258z
	 M594.017,327.844c-2.385-4.943-4.858-9.756-7.07-13.931c-1.244-2.348-2.405-4.497-3.415-6.34c-0.117-0.214-0.225-0.409-0.338-0.615
	c-2.1-3.819-3.482-6.218-3.482-6.218s-1.996,3.463-4.855,8.733l11.417,14.272v49.671
	C589.994,358.633,592.601,343.411,594.017,327.844z M552.452,281.465l17.855,22.321c-6.871-14.346-14.706-27.934-14.706-27.934
	S554.366,277.994,552.452,281.465z M428.634,276.453c-1.667-3.28-3.292-6.373-4.76-9.113c-3.51-6.549-6.107-11.056-6.107-11.056
	s-0.718,1.247-1.893,3.349c-1.492,2.672-3.733,6.748-6.248,11.541c-0.861,1.641-1.753,3.364-2.657,5.143h19.483l2.7,3.681
	l0.78-0.969c-0.384-0.77-0.768-1.532-1.15-2.285C428.732,276.645,428.683,276.55,428.634,276.453z M379.163,416.987
	c0,0-0.217,0.377-0.598,1.051c-1.07,1.897-3.43,6.154-5.874,11.004c-3.65,7.244-7.485,15.816-7.485,19.857
	c0,5.369,3.039,10.015,7.485,12.347c1.61,0.844,3.4,1.394,5.304,1.552v2.045h0.57h1.765v-2.045
	c6.329-0.525,11.453-5.268,12.561-11.411c0.145-0.808,0.229-1.637,0.229-2.487c0-2.492-1.461-6.709-3.435-11.273
	C385.552,428.07,379.163,416.987,379.163,416.987z M506.619,106.13h16.39c-3.311-3.835-6.717-7.584-10.216-11.244
	c-1.263,1.513-3.219,2.459-5.307,2.459h-0.866c-2.426,0-4.392,1.966-4.392,4.392C502.227,104.164,504.194,106.13,506.619,106.13z
	 M119.27,69.719c0-2.329-1.872-4.216-4.192-4.252c-3.547,2.758-7.026,5.598-10.442,8.511h10.375
	C117.363,73.978,119.27,72.071,119.27,69.719z M571.695,229.797h1.764l-17.807-24.658l-27.999-0.16
	c-5.958-11.853-11.691-21.799-11.691-21.799s-8.312,14.42-15.322,29.233l-15.116,17.383v19.169c0.792-1.408,1.262-2.224,1.262-2.224
	s4.365,7.574,9.435,17.375l-10.867,8.803l0.038,0.049h-12.486c2.367-4.87,4.803-9.59,6.963-13.654
	c0.707-1.33,1.383-2.589,2.018-3.76v-26.972h0.653h1.444h1.192l-34.851-47.507h-6.336c-7.07-15.032-15.621-29.864-15.621-29.864
	s-7.186,12.466-13.83,26.122c-7.357-16.627-18.04-35.154-18.04-35.154s-7.713,13.38-14.546,27.602l-7.171-12.269H360v-40.93h2.766
	v-4.424H360l-29.435-36.505c0,0-25.875,34.707-29.47,36.505h-2.489v4.424h2.489v40.93h-13.87V87.836h-6.219l-23.223-34.789h-28.407
	l-23.225,34.789h-8.9v6.007h1.645v20.753c-7.362-16.894-18.508-36.229-18.508-36.229s-12.144,21.067-19.452,38.434
	c-6.681-13.764-13.963-26.398-13.963-26.398s-8.246,14.305-15.238,29.056H92.908l-0.001,4.907l-18.062,26.246H57.236l-23.966,35.9
	h-9.184v6.199h1.697v26.433H11.268c11.699-41.241,32.082-78.823,59.025-110.679h52.405c3.58,0,6.482-2.902,6.482-6.482v-0.437
	c0-3.58-2.902-6.482-6.482-6.482h-7.08c-2.278,0-4.126-1.847-4.126-4.126c0-2.279,1.847-4.126,4.126-4.126h25.946
	c3.384,0,6.431-2.471,6.724-5.842c0.331-3.803-2.658-6.991-6.392-6.991h-5.535c-2.352,0-4.259-1.907-4.259-4.259
	c0-2.352,1.907-4.259,4.259-4.259h58.669c3.58,0,6.482-2.902,6.482-6.482v-0.437c0-3.58-2.902-6.482-6.482-6.482h-61.259
	c47-31.057,103.315-49.155,163.865-49.155c79.317,0,151.381,31.032,204.731,81.609h-25.797
	c-5.216-13.949-18.66-23.882-34.428-23.882c-20.296,0-36.75,16.454-36.75,36.75c0,2.19,0.202,4.332,0.57,6.417h-22.987
	c-3.384,0-6.431,2.471-6.724,5.842c-0.331,3.802,2.658,6.991,6.392,6.991h28.195c6.47,10.499,18.068,17.5,31.305,17.5
	c20.296,0,36.75-16.454,36.75-36.75c0-0.012-0.001-0.023-0.001-0.035h5.72c2.426,0,4.392,1.966,4.392,4.392
	c0,2.426-1.967,4.393-4.392,4.393h-0.136c-3.384,0-6.431,2.471-6.724,5.842c-0.331,3.803,2.658,6.991,6.392,6.991h49.322
	c30.818,39.966,51.697,87.978,58.955,140.352h-20.725V229.797z M389.644,53.185c3.734,0,6.722-3.189,6.392-6.991
	c-0.293-3.371-3.341-5.842-6.724-5.842h-56.096c-1.804,0-3.266-1.462-3.266-3.266c0-1.804,1.462-3.266,3.266-3.266h8.596
	c3.734,0,6.722-3.189,6.392-6.991c-0.293-3.371-3.34-5.842-6.724-5.842H252.31c-3.384,0-6.431,2.471-6.724,5.842
	c-0.331,3.802,2.658,6.991,6.392,6.991h53.707c1.804,0,3.266,1.462,3.266,3.266c0,1.804-1.462,3.266-3.266,3.266h-5.54
	c-3.384,0-6.431,2.471-6.724,5.842c-0.331,3.803,2.658,6.991,6.392,6.991H389.644z M551.953,162.862H507.34
	c-1.32,0-2.39-1.07-2.39-2.39c0-1.32,1.07-2.39,2.39-2.39h6.114c3.734,0,6.723-3.189,6.392-6.991
	c-0.293-3.371-3.34-5.842-6.724-5.842h-60.001c-3.384,0-6.431,2.471-6.724,5.842c-0.331,3.802,2.658,6.991,6.392,6.991h42.772
	c1.32,0,2.39,1.07,2.39,2.39v0.548c0,1.022-0.653,1.922-1.619,2.255c-2.369,0.814-4.211,2.849-4.435,5.43
	c-0.331,3.802,2.658,6.991,6.392,6.991h53.334c3.384,0,6.431-2.471,6.724-5.842C558.675,166.051,555.687,162.862,551.953,162.862z
	 M95.937,90.937c0-2.279-1.847-4.126-4.126-4.126h-1.288c-2.787,2.701-5.533,5.444-8.213,8.251h9.501
	C94.09,95.062,95.937,93.215,95.937,90.937z"></path>
<path id="color_x5F_3" fill="#00cec9" d="M435.532,181.077h-2.401l-2.383,3.505v-13.107h4.784V181.077z M127.06,162.444
	L127.06,162.444l101.281,0.001l-0.001-0.001l-29.442-42.985h-98.435l0.069,5.016L127.06,162.444z M257.784,53.047l-23.224,34.789
	h46.448L257.784,53.047z M11.268,219.143c-4.077,14.372-7.093,29.189-8.976,44.358h43.265c1.455-3.068,2.96-6.109,4.437-9.012
	l-24.21-35.346H11.268z M86.549,150.612l-23.965,35.9h47.93L86.549,150.612z M374.784,157.514H360v26.221h-35.398l-15.487-26.221
	H278.69l34.841,59.613h96.094L374.784,157.514z M330.565,75.655l-6.516,36.505H360L330.565,75.655z M586.274,323.744l-40.618-50.775
	h-10.298l0.371,0.527l-0.085,35.118h-22.303l-27.949-35.645h-50.583l40.874,50.775H586.274z M500.942,416.987h70.685
	c4.327-10.167,8.089-20.629,11.279-31.339l-107.223,0.108L500.942,416.987z M525.587,259.104h-23.178l-6.188,5.013l-10.867,8.803
	l27.987,0.576L525.587,259.104z M399.239,281.187l3.312-4.871h3.337v-13.347h-6.649V281.187z M305.822,242.421h-6.309v64.347h73.178
	L305.822,242.421z M214.558,232.959h84.955l-70.233-66.239h-76.964L214.558,232.959z M172.081,242.421H79.137l62.243,64.347h87.9
	L172.081,242.421z"></path>
<path id="color_x5F_2" fill="#fff0bf" d="M405.964,103.797c-0.367-2.085-0.57-4.226-0.57-6.417
	c0-20.296,16.454-36.75,36.75-36.75c15.768,0,29.212,9.933,34.428,23.882h-22.087c-3.384,0-6.431,2.471-6.724,5.842
	c-0.331,3.803,2.658,6.991,6.392,6.991h24.741c0,0.012,0.001,0.023,0.001,0.035c0,20.296-16.454,36.75-36.75,36.75
	c-13.237,0-24.836-7.001-31.305-17.5h25.472c3.734,0,6.722-3.189,6.392-6.991c-0.293-3.371-3.34-5.842-6.724-5.842H405.964z
	 M415.874,227.955h-6.248v43.218c2.516-4.793,4.756-8.869,6.248-11.541V227.955z M443.12,225.824h-4.761v19.08h4.761V225.824z
	 M428.634,225.824h-4.76v19.08h4.76V225.824z M457.604,225.824h-4.76v19.08h4.76V225.824z M472.089,225.824h-4.761v19.08h4.761
	V225.824z M438.359,272.969h4.761v-15.306h-4.761V272.969z M423.874,267.339c1.468,2.74,3.093,5.833,4.76,9.113v-18.79h-4.76
	V267.339z M452.844,272.969h3.756l1.005-1.006v-14.3h-4.76V272.969z M467.328,262.224l2.904-2.909h1.856v-1.652h-4.761V262.224z
	 M583.532,307.573v-0.615h-0.338C583.307,307.163,583.415,307.359,583.532,307.573z M592.946,306.958v14.917h1.561
	c0.35-4.94,0.581-9.913,0.687-14.917H592.946z M496.221,264.117l6.188-5.013h23.178l9.771,13.865h1.433v-43.172h-51.266v19.169
	c0.792-1.408,1.262-2.224,1.262-2.224S491.152,254.316,496.221,264.117z M546.662,233.242h-5.278v17.294h5.278V233.242z
	 M562.227,233.242h-5.278v17.294h5.278V233.242z M228.341,162.444V93.843h-29.443v25.615L228.341,162.444L228.341,162.444z
	 M253.299,159.248h7.596v-22.059c0-1.772-1.623-3.248-3.798-3.637c-2.175,0.39-3.798,1.865-3.798,3.637V159.248z M258.228,133.443
	L258.228,133.443c-0.391,0-0.766,0.043-1.13,0.109C257.462,133.486,257.837,133.443,258.228,133.443z M253.299,101.01v22.059h7.596
	V101.01c0-1.772-1.623-3.248-3.798-3.637C254.922,97.762,253.299,99.238,253.299,101.01z M257.097,97.373
	c0.364-0.065,0.74-0.109,1.13-0.109h0C257.837,97.264,257.462,97.308,257.097,97.373z M287.225,87.836h-58.885v6.007h58.885V87.836z
	 M56.166,242.769V192.71H25.783v26.433l24.21,35.346C52.223,250.109,54.376,246.062,56.166,242.769z M116.93,204.525L90.071,233.22
	v9.2l82.01,0.001l42.477,47.785v-57.247l-62.243-66.239l-12.088,12.915v-6.267c0-1.672-1.102-3.071-2.615-3.553
	c-1.512,0.482-2.616,1.881-2.616,3.553v11.855l-7.937,8.479v-31.257v-0.001l-26.528-37.969l0,0l-0.069-5.016h-7.555l-0.001,4.907
	l-18.062,26.246h11.704l23.964,35.9H56.166v6.199h60.764V204.525z M313.532,217.127l-34.841-59.613l-15.534,26.579l-2.261,3.869
	v-14.594c0-1.772-1.623-3.248-3.798-3.637c-2.175,0.39-3.798,1.865-3.798,3.637v16.005l4.365,4.117l14.018,13.22
	c1.929-1.983,4.411-3.183,7.12-3.183c6.119,0,11.097,6.101,11.097,13.6c0,2.062-0.387,4.011-1.061,5.764l8.171,7.706
	c3.669-6.868,6.424-11.648,6.424-11.648s4.751,8.239,10.098,18.66V217.127z M362.767,112.16h-38.717v4.424h38.717V112.16z
	 M373.771,274.894c1.514,2.935,3.081,6.054,4.613,9.229l5.932-7.807h3.039v-48.097h-13.583V274.894z M363.95,257.322v-29.102
	h-13.582v46.54c0.68,1.317,1.37,2.67,2.065,4.052C357.849,268.041,363.057,258.882,363.95,257.322z M340.767,257.061
	c0,0,0.093,0.162,0.257,0.449v-29.29h-13.583v35.005l6.494,6.249C337.809,262.191,340.767,257.061,340.767,257.061z
	 M500.942,418.258v-1.271l-25.258-31.23v-62.012l-40.874-50.775l-5.657,7.028l45.74,62.35h-4.572v57.641l24.356,30.082
	C497.212,424.97,499.742,420.39,500.942,418.258z M501.004,345.723h-9.292v18.422h9.292V345.723z M513.225,364.145h9.292v-18.422
	h-9.292V364.145z M534.738,364.145h9.292v-18.422h-9.292V364.145z M556.251,364.145h9.292v-18.422h-9.292V364.145z M529.514,433.598
	h-9.292v18.423h9.292V433.598z M541.735,452.021h9.292v-18.423h-9.292V452.021z M563.248,434.968c0.23-0.454,0.452-0.914,0.681-1.37
	h-0.681V434.968z M526.758,283.207c0-2.931-1.346-5.446-3.268-6.537c-1.922,1.091-3.268,3.606-3.268,6.537v25.407h6.536V283.207z
	 M377.995,462.797c-1.904-0.158-3.694-0.707-5.304-1.552v3.596h5.304V462.797z M372.691,429.042
	c2.444-4.851,4.805-9.107,5.874-11.004v-76.564h-5.874V429.042z M416.435,338.511h-6.617v26.52h6.617V338.511z M396.301,338.511
	h-6.616v26.52h6.616V338.511z M436.567,338.511h-6.616v26.52h6.616V338.511z M456.7,338.511h-6.617v26.52h6.617V338.511z
	 M416.435,382.765h-6.617v26.52h6.617V382.765z M396.301,382.765h-6.616v26.52h6.616V382.765z M436.567,382.765h-6.616v26.52h6.616
	V382.765z M456.7,382.765h-6.617v26.52h6.617V382.765z M392.891,451.385h3.41v-20.09h-6.616v6.33
	c1.974,4.564,3.435,8.782,3.435,11.273C393.12,449.748,393.036,450.578,392.891,451.385z M450.083,451.385h6.617v-20.09h-6.617
	V451.385z M477.572,451.385v-20.09h-6.617v20.09H477.572z M423.282,328.622c-0.029-0.007-0.058-0.017-0.087-0.024
	c-0.005,0.001-0.009,0.003-0.014,0.004C423.214,328.611,423.249,328.614,423.282,328.622z M423.18,306.58
	c0.005,0.001,0.01,0.003,0.014,0.004c0.029-0.008,0.058-0.017,0.087-0.024C423.249,306.568,423.214,306.571,423.18,306.58z
	 M431.719,317.591c0-5.298-3.624-9.736-8.524-11.007c-4.914,1.26-8.553,5.7-8.553,11.007c0,5.307,3.638,9.747,8.553,11.007
	C428.095,327.327,431.719,322.888,431.719,317.591z M53.274,352.969h44.074l41.004,45.335h-5.405v36.627
	c3.048-6.623,6.765-13.407,8.433-16.382V306.768l-62.243-64.347l-54.46,56.3l12.555,0.072l17.807,24.658h-1.765V352.969z
	 M177.278,330.838h-5.697v21.622h5.697V330.838z M159.945,330.838h-5.696v21.622h5.696V330.838z M194.611,330.838h-5.696v21.622
	h5.696V330.838z M211.943,330.838h-5.697v21.622h5.697V330.838z M177.278,377.031h-5.697v21.622l5.697,0V377.031z M159.945,377.031
	h-5.696v21.622l5.696,0V377.031z M194.611,377.031h-5.696v21.622l5.696,0V377.031z M211.943,377.031h-5.697v21.622l5.697,0V377.031z
	 M171.582,441.541h5.697v-21.622h-5.697V441.541z M154.249,441.209c0.042,0.111,0.085,0.222,0.126,0.332h5.57v-21.622h-5.696
	V441.209z M188.914,441.541h5.696v-21.622h-5.696V441.541z M206.247,441.541h5.697v-21.622h-5.697V441.541z M328.015,330.838h-5.697
	v21.622h5.697V330.838z M310.682,330.838h-5.696v21.622h5.696V330.838z M339.651,352.459h5.696v-21.622h-5.696V352.459z
	 M362.68,330.838h-5.697v21.622h5.697V330.838z M328.015,377.031h-5.697v21.622l5.697,0V377.031z M310.682,377.031h-5.696v21.622
	l5.696,0V377.031z M339.651,398.653l5.696,0v-21.622h-5.696V398.653z M362.68,377.031h-5.697v21.622l5.697,0V377.031z
	 M328.015,419.919h-5.697v21.622h5.697V419.919z M304.986,429.799c1.942,3.891,3.892,8.093,5.259,11.742h0.438v-21.622h-5.696
	V429.799z M339.651,441.541h5.696v-21.622h-5.696V441.541z M356.983,441.541h5.697v-21.622h-5.697V441.541z M252.416,330.838h-5.697
	v21.622h5.697V330.838z M235.083,330.838h-5.696v21.622h5.696V330.838z M269.749,330.838h-5.696v21.622h5.696V330.838z
	 M287.081,330.838h-5.697v21.622h5.697V330.838z M246.72,398.653l5.697,0v-21.622h-5.697V398.653z M235.083,377.031h-5.696v21.622
	l5.696,0V377.031z M264.052,398.653l5.696,0v-21.622h-5.696V398.653z M287.081,377.031h-5.697v21.622l5.697,0V377.031z
	 M229.387,425.551c1.86,3.552,3.961,7.758,5.696,11.735v-17.366h-5.696V425.551z M281.384,441.541h4.64
	c0.322-0.861,0.677-1.752,1.057-2.664v-18.958h-5.697V441.541z M252.416,244.901h-5.697v21.622h5.697V244.901z M235.083,244.901
	h-5.696v21.622h5.696V244.901z M269.749,244.901h-5.696v21.622h5.696V244.901z M287.081,244.901h-5.697v21.622h5.697V244.901z
	 M252.416,287.789h-5.697v21.622h5.697V287.789z M235.083,287.789h-5.696v21.622h5.696V287.789z M269.749,287.789h-5.696v21.622
	h5.696V287.789z M287.081,287.789h-5.697v21.622h5.697V287.789z M25.938,422.221h6.564v13.702c2.274,4.444,4.659,8.822,7.146,13.133
	c-0.001-0.053-0.008-0.104-0.008-0.157c0-2.26,1.204-5.943,2.901-10.014H36.63v-16.664h9.06v9.728
	c2.22-4.582,4.563-8.95,6.119-11.772v-21.873H16.449C19.278,406.441,22.44,414.422,25.938,422.221z M49.442,464.842h2.366v-2.126
	c-1.703-0.219-3.309-0.74-4.763-1.515C47.831,462.424,48.639,463.631,49.442,464.842z M82.47,434.173v30.669h15.889v-30.669
	c0-4.916-3.367-9.044-7.92-10.21C85.863,425.112,82.47,429.241,82.47,434.173z M61.177,415.528h3.935v-14.917h-3.935V415.528z
	 M78.46,400.612h-3.935v14.917h3.935V400.612z M91.809,400.612h-3.935v14.917h3.935V400.612z M101.224,415.528h3.934v-14.917h-3.934
	V415.528z M61.177,431.27c1.263,2.581,2.496,5.247,3.539,7.762h0.396v-14.917h-3.935V431.27z M114.572,415.528h3.934v-14.917h-3.934
	V415.528z M114.572,439.031h3.934v-14.917h-3.934V439.031z M18.37,323.45H0.869c1.337,17.559,4.199,34.691,8.451,51.267h9.051
	V323.45z M31.039,344.19h-2.798v-17.294h-5.278v17.294L31.039,344.19L31.039,344.19z M38.528,326.896v17.294h8.076v0h-2.798v-17.294
	H38.528z M500.496,462.797c-1.455-0.121-2.842-0.474-4.136-1.007v3.051H469.56v39.122h12.783v-13.901
	c0-7.572,6.138-13.71,13.71-13.71h0c7.572,0,13.71,6.138,13.71,13.71v13.901h5.121c2.669-2.849,5.297-5.739,7.854-8.692v-5.209
	c0-7.572,6.138-13.71,13.71-13.71h0c0.44,0,0.874,0.025,1.304,0.066c2.782-3.792,5.477-7.651,8.081-11.577h-45.338V462.797z
	 M90.783,476.353L90.783,476.353c-7.572,0-13.71,6.138-13.71,13.71v10.323c1.093,1.205,2.206,2.391,3.318,3.578h24.102v-13.901
	C104.493,482.491,98.355,476.353,90.783,476.353z M364.754,476.353L364.754,476.353c-7.572,0-13.71,6.138-13.71,13.71v13.901h27.421
	v-13.901C378.464,482.491,372.326,476.353,364.754,476.353z M405.15,476.353L405.15,476.353c-7.572,0-13.71,6.138-13.71,13.71
	v13.901h27.421v-13.901C418.86,482.491,412.722,476.353,405.15,476.353z M445.546,476.353c-7.572,0-13.71,6.138-13.71,13.71v13.901
	h27.421v-13.901C459.256,482.491,453.118,476.353,445.546,476.353z M28.402,274.773c0-1.724-1.137-3.167-2.695-3.665
	c-1.564,0.494-2.703,1.938-2.703,3.665v7.024c1.336,2.491,5.508,10.576,5.397,10.357V274.773z M7.347,288.793v-14.021
	c0-1.724-1.135-3.167-2.694-3.665c-1.564,0.494-2.704,1.938-2.704,3.665v22.763h1.02C4.427,294.528,5.911,291.578,7.347,288.793z
	 M89.894,200.11c0-1.779-1.84-3.295-4.003-3.746c-2.27,0.387-3.975,1.904-3.975,3.746v22.763l7.979,0V200.11z M82.036,236.641
	c-0.01,0.039-0.029,0.075-0.038,0.114c-0.017,0.07-0.014,0.145-0.026,0.216c-0.024,0.154-0.051,0.308-0.051,0.468v4.982h7.838
	v-0.001v-4.981c0-1.786-1.692-3.3-3.861-3.744C83.965,234.023,82.448,235.169,82.036,236.641z M342.491,126.843
	C342.49,126.843,342.49,126.843,342.491,126.843c-0.064,0.02-0.136,0.039-0.204,0.058c-1.866,0.676-3.202,2.451-3.202,4.55v20.53
	l6.8,0v-20.53C345.884,129.282,344.453,127.467,342.491,126.843z M425.954,427.47c-3.329,1.051-5.798,4.825-5.798,9.333v28.038
	h11.564v-28.038C431.719,432.309,429.268,428.535,425.954,427.47z M299.513,464.842h-0.211h-2.335h-24.101h-5.188v-38.524
	c0-6.175-3.367-11.36-7.92-12.825c-4.576,1.443-7.969,6.63-7.969,12.825v38.524h-25.912h-2.335h-80.11h-2.052h-0.283v-2.045
	c-3.121-0.259-5.95-1.544-8.15-3.517v5.561h-8.72v39.122h13.212v-13.901c0-7.572,6.138-13.71,13.71-13.71h0
	c7.572,0,13.71,6.138,13.71,13.71v13.901h12.975v-13.901c0-7.572,6.138-13.71,13.71-13.71l0,0c7.572,0,13.71,6.138,13.71,13.71
	v13.901h12.975v-13.901c0-7.572,6.138-13.71,13.71-13.71h0c7.572,0,13.71,6.138,13.71,13.71v13.901h4.574c0,0,0,0,0,0h8.4v-13.901
	c0-7.572,6.138-13.71,13.71-13.71l0,0c7.572,0,13.71,6.138,13.71,13.71v13.901h12.975v-13.901c0-7.572,6.138-13.71,13.71-13.71h0
	c7.572,0,13.71,6.138,13.71,13.71v13.901h11.263v-39.122h-0.009H299.513z"></path>
<path id="color_x5F_1" fill="#ffffff" d="M376.252,109.639c0.293-3.371,3.34-5.842,6.724-5.842h53.001
	c3.384,0,6.431,2.471,6.724,5.842c0.331,3.802-2.658,6.991-6.392,6.991h-53.667C378.91,116.63,375.921,113.442,376.252,109.639z
	 M129.18,101.981v-0.437c0-3.58-2.902-6.482-6.482-6.482h-7.08c-2.278,0-4.126-1.847-4.126-4.126c0-2.279,1.847-4.126,4.126-4.126
	h25.946c3.384,0,6.431-2.471,6.724-5.842c0.331-3.803-2.658-6.991-6.392-6.991h-5.535c-2.352,0-4.259-1.907-4.259-4.259
	c0-2.352,1.907-4.259,4.259-4.259h58.669c3.58,0,6.482-2.902,6.482-6.482v-0.437c0-3.58-2.902-6.482-6.482-6.482h-61.259
	c-6.408,4.234-12.646,8.704-18.695,13.408c2.321,0.036,4.192,1.923,4.192,4.252c0,2.352-1.907,4.259-4.259,4.259h-10.375
	c-4.841,4.128-9.547,8.408-14.113,12.833h1.288c2.279,0,4.126,1.847,4.126,4.126c0,2.278-1.847,4.126-4.126,4.126h-9.501
	c-4.143,4.34-8.141,8.817-12.018,13.401h52.405C126.278,108.464,129.18,105.561,129.18,101.981z M414.54,177.335
	c-7.357-16.627-18.04-35.154-18.04-35.154s-7.713,13.38-14.546,27.602l20.278,34.694l2.485-3.271l15.294-20.129h5.64v-9.602h9.881
	v9.602h8.459c-7.07-15.032-15.621-29.864-15.621-29.864S421.184,163.678,414.54,177.335z M527.653,204.979
	c-5.958-11.853-11.691-21.799-11.691-21.799s-8.312,14.42-15.322,29.233l6.566-7.551L527.653,204.979z M160.937,116.801
	c-6.681-13.764-13.963-26.398-13.963-26.398s-8.246,14.305-15.238,29.056h30.476h36.686v-4.862
	c-7.362-16.894-18.508-36.229-18.508-36.229S168.245,99.434,160.937,116.801z M431.771,276.743h-2.99
	c0.382,0.754,0.766,1.515,1.15,2.285L431.771,276.743z M415.874,227.955l33.178-45.145l32.835,44.88v27.865
	c-0.635,1.171-1.311,2.43-2.018,3.76h-4.458v-1.652h-8.083v4.561l-6.401,6.411v-10.972h-8.083v15.306h-6.401v-15.306h-8.084v15.306
	h-3.55l-2.852,3.543v-18.849h-8.083v9.676c-3.51-6.549-6.107-11.056-6.107-11.056s-0.718,1.247-1.893,3.349V227.955z
	 M467.328,244.904h8.083v-19.08h-8.083V244.904z M452.844,244.904h8.083v-19.08h-8.083V244.904z M438.359,244.904h8.084v-19.08
	h-8.084V244.904z M423.874,244.904h8.083v-19.08h-8.083V244.904z M595.194,306.958c0.045-2.135,0.081-4.272,0.081-6.417
	c0-6.769-0.248-13.479-0.693-20.135l-23.925,23.817l4.199,5.249c2.859-5.27,4.855-8.733,4.855-8.733s1.382,2.399,3.482,6.218h3.753
	v6.955c2.212,4.174,4.685,8.988,7.07,13.931c0.181-1.985,0.349-3.973,0.49-5.969h-1.561v-14.917H595.194z M543.693,272.969h-6.902
	v-43.172l17.717-23.162l17.187,23.162v29.518v0.001h-16.361L543.693,272.969z M556.949,250.537h8.076v-17.294h-8.076V250.537z
	 M541.385,250.537h8.076v-17.294h-8.076V250.537z M140.201,169.916c-0.448-0.189-0.941-0.294-1.458-0.294h0c0,0,0,0-0.001,0
	c-0.057,0-0.158,0.011-0.273,0.028c-0.306,0.043-0.733,0.126-0.856,0.165c0,0,0,0-0.001,0h0c-1.512,0.482-2.616,1.881-2.616,3.553
	v11.855l-7.937,8.479v-31.257h101.281l-0.001-0.001h0.001V93.843h58.885v63.671h-8.535l-15.534,26.579v-10.725
	c0-1.293-0.862-2.433-2.173-3.106c-0.787-0.404-1.735-0.64-2.756-0.64h0c-0.391,0-0.766,0.043-1.13,0.108c0,0,0,0,0,0
	c-2.175,0.39-3.798,1.865-3.798,3.637v16.005l-24.02-22.654h-76.964l-9.827,10.499v-3.851
	C142.488,171.816,141.545,170.485,140.201,169.916z M253.299,123.069h9.857l0,0V101.01c0-1.293-0.862-2.433-2.173-3.106
	c-0.787-0.404-1.735-0.64-2.756-0.64h0c-0.391,0-1.13,0.109-1.13,0.109c-2.175,0.389-3.798,1.865-3.798,3.637V123.069z
	 M253.299,159.248h7.596h2.261v-22.059c0-1.293-0.862-2.433-2.173-3.106c-0.787-0.404-1.735-0.64-2.756-0.64h0
	c-0.391,0-1.13,0.109-1.13,0.109c-2.175,0.39-3.798,1.865-3.798,3.637V159.248z M23.004,274.773c0-1.727,1.139-3.171,2.703-3.665
	c0.173-0.055,0.348-0.107,0.531-0.137c0.205-0.039,0.414-0.064,0.631-0.064c0,0,0,0,0.001,0h0c0.267,0,0.527,0.027,0.779,0.079
	c0.755,0.154,1.43,0.529,1.954,1.054c0.525,0.525,0.899,1.199,1.054,1.954c0.051,0.252,0.079,0.512,0.079,0.779v17.685l5.892-6.091
	c1.455-6.125,4.992-14.563,8.93-22.865H2.292c-1.428,11.502-2.191,23.209-2.267,35.079l2.432,0.014
	c0.17-0.354,0.341-0.706,0.512-1.058h-1.02v-22.763c0-1.727,1.14-3.171,2.704-3.665c0.173-0.055,0.348-0.107,0.531-0.137
	c0.205-0.039,0.414-0.064,0.63-0.064c0,0,0.001,0,0.001,0h0c0.801,0,1.545,0.243,2.162,0.66c0.206,0.139,0.397,0.297,0.572,0.472
	c0.524,0.525,0.899,1.199,1.053,1.954c0.052,0.252,0.078,0.512,0.078,0.779v9.555c4.117-7.777,7.336-13.365,7.336-13.365
	s2.538,4.404,5.988,10.833V274.773z M60.761,234.509c0,0-1.881,3.263-4.6,8.264v-50.059h60.764v11.814l-26.859,28.696v1.146v0.006
	c-0.854-0.494-1.908-0.798-3.064-0.798c-0.281,0-0.553,0.027-0.82,0.063c-0.097,0.012-0.187,0.039-0.283,0.055
	c-1.933,0.328-3.45,1.474-3.862,2.946c-0.011,0.039-0.029,0.075-0.038,0.114c-0.017,0.07-0.014,0.145-0.026,0.216
	c-0.025,0.156-0.057,0.31-0.057,0.471v4.982h-2.784l-9.01,9.315C65.084,242.009,60.761,234.509,60.761,234.509z M81.916,222.873
	h10.172v0V200.11c0-2.135-2.276-3.865-5.086-3.865c-0.281,0-0.553,0.027-0.82,0.063c-0.1,0.012-0.192,0.04-0.29,0.056
	c-2.27,0.387-3.975,1.904-3.975,3.746V222.873z M390.489,276.316h1.666v-13.347h13.733v13.347h1.081
	c0.905-1.778,1.796-3.501,2.657-5.143v-54.047h-96.094v20.483c3.605,7.025,7.473,15.035,10.346,22.187l3.563,3.428v-35.005h16.717
	v34.896c1.698,3.086,3.881,7.132,6.21,11.644v-46.54h16.716v34.157c1.763,3.191,4.143,7.587,6.686,12.517v-46.675h16.718V276.316z
	 M288.838,222.891c0.673-1.753,1.061-3.702,1.061-5.764c0-7.499-4.978-13.6-11.097-13.6c-2.709,0-5.191,1.199-7.12,3.183
	l1.671,1.576c1.517-1.407,3.4-2.251,5.449-2.251c4.998,0,9.05,4.966,9.05,11.092c0,1.486-0.243,2.902-0.675,4.197L288.838,222.891z
	 M360,183.735h-35.398v-67.151H360V183.735z M350.996,151.982h-2.195v0v-20.53c0-2.012-1.224-3.739-2.967-4.477
	c-0.581-0.246-2.426-0.351-2.682-0.302c-0.228,0.038-0.445,0.103-0.661,0.17c0,0,0,0-0.001,0c-0.063,0.02-0.136,0.039-0.204,0.058
	c-1.866,0.676-3.202,2.451-3.202,4.55v20.53h-2.351v1.881h14.262V151.982z M475.683,323.744h110.591v49.671
	c-1.035,4.113-2.163,8.189-3.368,12.233l-107.223,0.108V323.744z M556.251,364.145h13.994v-18.422h-13.994V364.145z
	 M534.738,364.145h13.994v-18.422h-13.994V364.145z M513.225,364.145h13.994v-18.422h-13.994V364.145z M491.712,364.145h13.994
	v-18.422h-13.994V364.145z M500.942,418.258c0.452-0.804,0.721-1.271,0.721-1.271h-0.721V418.258z M501.663,416.987h69.964
	c-2.396,5.63-4.972,11.165-7.698,16.611h-0.681v1.37c-2.389,4.711-4.891,9.354-7.519,13.916v-15.286h-13.994v18.423h12.139
	c-2.575,4.346-5.255,8.621-8.041,12.821H502.83v-2.045c7.161-0.595,12.79-6.584,12.79-13.898
	C515.62,441.19,501.663,416.987,501.663,416.987z M520.222,452.021h13.994v-18.423h-13.994V452.021z M535.644,308.614l0.085-35.118
	l-10.142-14.392l-12.245,14.392v35.118h6.881v-25.407c0-2.931,1.346-5.446,3.268-6.537c0,0,0,0,0,0
	c0.321-0.182,0.659-0.325,1.009-0.423c0.008-0.002,0.939-0.158,1.127-0.158c0.001,0,0.002,0,0.003,0c0.56,0,1.1,0.112,1.608,0.32
	c0.847,0.347,1.604,0.96,2.215,1.765c0.367,0.483,0.681,1.035,0.931,1.64c0.416,1.009,0.653,2.164,0.653,3.393v25.407H535.644z
	 M496.36,461.79v3.051H469.56h-34.065v-28.038c0-5.32-3.434-9.634-7.67-9.634c-0.299,0-1.877,0.299-1.872,0.301
	c-3.329,1.051-5.798,4.825-5.798,9.333v28.038H380.33v-2.045c6.329-0.525,11.453-5.268,12.561-11.411h8.029h0v-20.09h0v0l-11.235,0
	v6.33c-4.133-9.556-10.522-20.639-10.522-20.639s-0.217,0.377-0.598,1.051v-76.564l46.116-62.748l45.639,62.381v58.882
	l24.356,30.082c-3.486,7.01-6.97,14.978-6.97,18.829C487.706,454.726,491.285,459.703,496.36,461.79z M400.919,382.765
	L400.919,382.765h-11.235v26.52h11.235h0V382.765z M400.919,338.511L400.919,338.511h-11.235v26.52h11.235h0V338.511z
	 M421.053,382.765L421.053,382.765h-11.236v26.52h11.236h0V382.765z M421.053,338.511L421.053,338.511h-11.236v26.52h11.236h0
	V338.511z M437.411,317.591c0-1.572-0.319-3.069-0.895-4.431c-0.576-1.362-1.41-2.589-2.44-3.619
	c-0.258-0.258-0.527-0.503-0.808-0.735c-0.562-0.464-1.17-0.875-1.815-1.226c-1.613-0.876-3.462-1.374-5.427-1.374
	c-0.476,0-1.495,0.11-1.541,0.116c-5.557,0.754-9.843,5.505-9.843,11.268s4.287,10.514,9.843,11.268
	c0.046,0.007,1.065,0.116,1.541,0.116C432.314,328.975,437.411,323.879,437.411,317.591z M441.186,382.765h-11.235v26.52h11.235
	V382.765z M441.186,338.511h-11.235v26.52h11.235V338.511z M461.318,431.295l-11.235,0v20.09h11.235V431.295L461.318,431.295z
	 M461.318,382.765h-11.235v26.52h11.235V382.765z M461.318,338.511h-11.235v26.52h11.235V338.511z M482.19,431.295l-11.236,0v20.09
	h11.236V431.295L482.19,431.295z M299.513,306.768h73.178v34.706v87.568c-3.65,7.244-7.485,15.816-7.485,19.857
	c0,5.369,3.039,10.015,7.485,12.347v3.596h-34.984h-0.009h-38.185h-0.211v-2.045c0.071-0.006,0.14-0.021,0.211-0.028
	c7.058-0.695,12.578-6.629,12.578-13.871c0-1.756-0.728-4.371-1.847-7.357h4.414h0v-21.622h0v0l-9.672,0v9.879
	c-2.091-4.19-6.851-12.812-6.851-12.812s-3.555,6.167-7.077,13.265v-10.332v0l-9.673,0v21.622h4.64
	c-1.118,2.986-1.847,5.602-1.847,7.357c0,7.314,5.629,13.304,12.789,13.898v2.045h-24.101v-38.524
	c0-7.31-4.718-13.237-10.539-13.237c-0.411,0-2.578,0.41-2.57,0.413c-4.576,1.443-7.969,6.63-7.969,12.825v38.524h-25.912v-2.045
	c7.161-0.595,12.789-6.584,12.789-13.898c0-1.756-0.729-4.371-1.847-7.357h2.24v-21.622v0l-3.976,0h-5.696v5.632
	c-2.573-4.913-4.678-8.565-4.678-8.565s-4.815,8.353-8.79,16.808v-13.875v0l-9.673,0v21.622h6.352
	c-1.118,2.986-1.847,5.602-1.847,7.357c0,3.754,1.49,7.153,3.902,9.659c2.287,2.376,5.403,3.95,8.888,4.24v2.045h-80.11v-2.045
	c7.161-0.595,12.789-6.584,12.789-13.898c0-1.756-0.729-4.371-1.847-7.357h9.546v-21.622v0l-9.672,0v21.29
	c-3.846-10.105-11.984-24.223-11.984-24.223s-0.33,0.573-0.885,1.562V306.768h87.9l-14.697-16.534l-0.024-57.275h84.955v9.462
	V306.768z M163.921,377.031h-9.672v21.622h9.672v0V377.031z M163.921,330.838h-9.672v21.622h9.672V330.838z M181.255,419.919
	l-9.673,0v21.622h9.673V419.919L181.255,419.919z M181.255,377.031h-9.673v21.622h9.673v0V377.031z M181.255,330.838h-9.673v21.622
	h9.673V330.838z M198.587,419.919l-9.672,0v21.622h9.672V419.919L198.587,419.919z M198.587,377.031h-9.672v21.622h9.672v0V377.031z
	 M198.587,330.838h-9.672v21.622h9.672V330.838z M215.919,377.031h-9.673v21.622h9.673v0V377.031z M215.919,330.838h-9.673v21.622
	h9.673V330.838z M239.059,377.031h-9.672v21.622h9.672v0V377.031z M239.059,330.838h-9.672v21.622h9.672V330.838z M239.059,287.789
	l-9.672,0v21.622h9.672V287.789L239.059,287.789z M239.059,244.901l-9.672,0v21.622h9.672V244.901L239.059,244.901z
	 M256.392,377.031h-9.673v21.622h9.673v0V377.031z M256.392,330.838h-9.673v21.622h9.673V330.838z M256.392,287.789l-9.673,0v21.622
	h9.673V287.789L256.392,287.789z M256.392,244.901l-9.673,0v21.622h9.673V244.901L256.392,244.901z M273.725,377.031h-9.672v21.622
	h9.672v0V377.031z M273.725,330.838h-9.672v21.622h9.672V330.838z M273.725,287.789l-9.672,0v21.622h9.672V287.789L273.725,287.789z
	 M273.725,244.901l-9.672,0v21.622h9.672V244.901L273.725,244.901z M291.057,377.031h-9.673v21.622h9.673v0V377.031z
	 M291.057,330.838h-9.673v21.622h9.673V330.838z M291.057,287.789l-9.673,0v21.622h9.673V287.789L291.057,287.789z M291.057,244.901
	l-9.673,0v21.622h9.673V244.901L291.057,244.901z M356.983,352.459h9.673v-21.622h-9.673V352.459z M356.983,398.653h9.673v0v-21.622
	h-9.673V398.653z M356.983,441.541h9.673v-21.622v0l-9.673,0V441.541z M339.651,352.459h9.672v-21.622h-9.672V352.459z
	 M339.651,398.653h9.672v0v-21.622h-9.672V398.653z M339.651,441.541h9.672v-21.622v0l-9.672,0V441.541z M322.319,352.459h9.673h0
	v-21.622h0h-9.673V352.459z M322.319,398.653h9.673v0h0v-21.622h0h-9.673V398.653z M322.319,441.541h9.673h0v-21.622l-9.673,0
	V441.541z M304.986,352.459h9.672h0v-21.622h0h-9.672V352.459z M304.986,398.653h9.672v-21.622h0h-9.672V398.653z M51.808,464.842
	h0.622v-2.045c-0.21-0.017-0.415-0.055-0.622-0.082V464.842z M94.739,355.566l38.207,42.738v36.627
	c-2.555,5.553-4.639,10.991-4.639,13.968c0,4.126,1.792,7.829,4.639,10.382v5.561h-8.72h-20.68v-30.669
	c0-5.82-4.718-10.538-10.539-10.538c-0.411,0-0.815,0.03-1.215,0.075c-0.127,0.015-1.364,0.251-1.355,0.253
	c-4.576,1.149-7.969,5.278-7.969,10.21v30.669H54.765v-2.045c7.16-0.595,12.789-6.584,12.789-13.898c0-2.233-1.175-5.854-2.84-9.867
	h0.396h3.415h0v-14.917h-3.415v0h-3.935v7.155c-3.677-7.516-7.579-14.283-7.579-14.283s-0.703,1.22-1.79,3.191v-21.873
	L94.739,355.566z M68.526,400.612L68.526,400.612h-7.35v14.917h7.35h0V400.612z M81.875,400.612h-7.35v14.917h7.35V400.612z
	 M114.572,415.528h7.35v-14.917h-7.35V415.528z M114.572,439.031h7.35v-14.917v0l-7.35,0V439.031z M101.224,415.528h7.35v-14.917
	h-7.35V415.528z M95.224,400.612h-7.35v14.917h7.35V400.612z M53.274,352.969H36.913L18.37,374.717V323.45l17.717-23.162
	l17.187,23.162V352.969L53.274,352.969z M31.039,326.896h-8.076v17.294h8.076v0V326.896z M46.604,326.896h-8.076v17.294h8.076v0
	V326.896z"></path>
</svg>